# This file uses centimeters as units for non-parametric coordinates.

mtllib alfombra2.mtl
g default
v -0.683162 0.505003 3.072266
v -0.683162 0.505003 1.146687
v -0.682999 0.426156 3.072266
v -0.682999 0.426156 1.146687
v 1.996871 0.431679 3.072266
v 1.996871 0.431679 1.146687
v 1.996708 0.510525 3.072266
v 1.996708 0.510525 1.146687
vt 0.375000 0.000000
vt 0.625000 0.000000
vt 0.625000 0.250000
vt 0.375000 0.250000
vt 0.625000 0.500000
vt 0.375000 0.500000
vt 0.625000 0.750000
vt 0.375000 0.750000
vt 0.625000 1.000000
vt 0.375000 1.000000
vt 0.875000 0.000000
vt 0.875000 0.250000
vt 0.125000 0.000000
vt 0.125000 0.250000
vn -0.999998 -0.002058 0.000000
vn -0.999998 -0.002058 0.000000
vn -0.999998 -0.002058 0.000000
vn -0.999998 -0.002058 0.000000
vn 0.002061 -0.999998 0.000000
vn 0.002061 -0.999998 0.000000
vn 0.002061 -0.999998 0.000000
vn 0.002061 -0.999998 0.000000
vn 0.999998 0.002061 0.000000
vn 0.999998 0.002061 0.000000
vn 0.999998 0.002061 0.000000
vn 0.999998 0.002061 0.000000
vn -0.002061 0.999998 -0.000000
vn -0.002061 0.999998 -0.000000
vn -0.002061 0.999998 -0.000000
vn -0.002061 0.999998 -0.000000
vn 0.000000 -0.000000 -1.000000
vn 0.000000 -0.000000 -1.000000
vn 0.000000 -0.000000 -1.000000
vn 0.000000 -0.000000 -1.000000
vn 0.000000 0.000000 1.000000
vn 0.000000 0.000000 1.000000
vn 0.000000 0.000000 1.000000
vn 0.000000 0.000000 1.000000
s off
g alfombra2:pCube1
usemtl alfombra2:lambert5SG
f 1/1/1 2/2/2 4/3/3 3/4/4
f 3/4/5 4/3/6 6/5/7 5/6/8
f 5/6/9 6/5/10 8/7/11 7/8/12
f 7/8/13 8/7/14 2/9/15 1/10/16
f 2/2/17 8/11/18 6/12/19 4/3/20
f 7/13/21 1/1/22 3/4/23 5/14/24
